<svg id="Layer_1" data-name="Layer 1" xmlns="http://www.w3.org/2000/svg" viewBox="0 0 400 400"><title>dust_on-dark_300x300</title><g opacity="0.5"><path d="M92.37,229.43a7.45,7.45,0,0,1,0,1.25c-.18,1.07-.54,2.28-1.74,2.27-.66,0-1.4-.92-1.94-1.56a12.37,12.37,0,0,1-1.28-2.14,2.5,2.5,0,0,1,1.16-3.65,2.46,2.46,0,0,1,3.5,1.57,16.94,16.94,0,0,1,.45,2.23Z" fill="#fff"/><path d="M203.88,44.72a12.52,12.52,0,0,1-1.41-.31,2.76,2.76,0,0,1-2.29-2.61,3.49,3.49,0,0,1,1.51-2.29,2.73,2.73,0,0,1,3.63.25A7.86,7.86,0,0,1,207,43C207.27,44.16,206.21,44.76,203.88,44.72Z" fill="#fff"/><path d="M102.35,271c.23-.38.46-1.28,1-1.56s1.39.05,2.06.26a10,10,0,0,1,2.65,1.11c.53.36.8,1.11,1.19,1.68-.6.36-1.17.95-1.79,1a16.92,16.92,0,0,1-3.32-.2C103,273.2,102.44,272.52,102.35,271Z" fill="#fff"/><path d="M393.85,121.77c-.14,0-.28,0-.41,0-1.11,0-2.72,0-2.63-1.28.06-.89,1.42-2,2.44-2.43a3.19,3.19,0,0,1,3.76,1.09c.27.35.39,1.33.22,1.43a32.8,32.8,0,0,1-3.21,1.56Z" fill="#fff"/><path d="M50.94,130.87c0,1.4-.68,2.17-1.91,2.18a2.39,2.39,0,0,1-2.34-2.6c0-1.57.79-2.5,2.13-2.43S50.94,129.3,50.94,130.87Z" fill="#fff"/><path d="M276.3,256.14a17.28,17.28,0,0,1,.35-3.06c.15-.52.83-.89,1.27-1.33a8.37,8.37,0,0,1,.79,1.51,11.53,11.53,0,0,1,.52,2.6,5,5,0,0,1-.33,2.25,1.5,1.5,0,0,1-1.43.24,11.93,11.93,0,0,1-1.5-2Z" fill="#fff"/><path d="M211.72,248.82c0,1.94-1.16,3.39-2.33,3.33a1.83,1.83,0,0,1-1.86-1.87c-.07-1,1.74-3,2.73-2.71C210.93,247.73,211.44,248.57,211.72,248.82Z" fill="#fff"/><path d="M127.54,140c-.12.9-.54,1.75-1.75,1.75s-2.14-1.24-2.05-2.86c.05-1.08.4-1.95,1.65-2C126.48,136.86,127.59,138.44,127.54,140Z" fill="#fff"/><path d="M34,11.16c1,0,1.78.33,1.82,1.52a2.61,2.61,0,0,1-2.23,2.59,2.9,2.9,0,0,1-2.33-2.1C31.24,12.11,32.55,11.15,34,11.16Z" fill="#fff"/><path d="M61.61,238.85c0,1.65-3.7,7.19-4.68,7.19s.39-5.35.4-6.2a2.94,2.94,0,0,1,2.68-2C60.66,238,61.24,238.61,61.61,238.85Z" fill="#fff"/><path d="M108.44,397.32c-.34-.25-1.25-.59-1.51-1.2-.45-1.06.67-1.3,1.38-1.67a2.39,2.39,0,0,1,.59-.19c1-.29,2.06-.85,2.64.55.39,1-.61,2.11-2,2.4C109.32,397.25,109.11,397.25,108.44,397.32Z" fill="#fff"/><path d="M30.36,363.65c.23-.21.66-.91,1.22-1,1-.22,2.43,1.66,2.47,2.95A1.27,1.27,0,0,1,32.69,367C31.65,367.06,30.41,365.49,30.36,363.65Z" fill="#fff"/><path d="M106.45,374.23c.18.14.84.41,1,.88.13.3-.39.9-.65,1.34a2.68,2.68,0,0,1-.45.44c-.7.65-1.45,1.58-2.46.85a2.22,2.22,0,0,1-.44-1.95C103.79,374.58,104.77,374.05,106.45,374.23Z" fill="#fff"/><path d="M164.82,305.12c.93,0,1.52.7,1.6,1.8a2,2,0,0,1-2,1.92,1.74,1.74,0,0,1-1.71-1.94C162.74,305.82,163.49,305.12,164.82,305.12Z" fill="#fff"/><path d="M90.3,340.17c-.22.21-.65.92-1.22,1.08-.91.23-2.3-1.36-2-2.43a2.68,2.68,0,0,1,1.4-1.72C89.29,336.79,90.34,338.35,90.3,340.17Z" fill="#fff"/><path d="M16.37,38.61c.42.51,1.45,1.22,1.39,1.85a2.78,2.78,0,0,1-1.67,2c-1,.27-1.74-.64-1.84-1.77S14.8,38.9,16.37,38.61Z" fill="#fff"/><path d="M77.68,196.27a2.28,2.28,0,0,1,2.5,2.13,1.89,1.89,0,0,1-1,1.4c-.86.22-2.48-1.37-2.33-2.23C76.92,197,77.47,196.57,77.68,196.27Z" fill="#fff"/><path d="M119.91,159.81c.27,0,.36,0,.41,0l2.32,1.39c-.44.45-.84,1.19-1.35,1.28a2.31,2.31,0,0,1-2.7-1.42C118.18,159.84,119.3,159.87,119.91,159.81Z" fill="#fff"/><path d="M263.56,115.47a.69.69,0,0,1-.09.89c-.54.54-.93,1-1.35,1a1.39,1.39,0,0,1-1.4-1.83,3.78,3.78,0,0,1,.75-1.37.68.68,0,0,1,1.09,0Z" fill="#fff"/><path d="M91.7,116.07a9.32,9.32,0,0,1-2.39,1.41c-.39.09-1.41-.72-1.45-1.19-.12-1.2.92-1.63,1.92-1.63a5.43,5.43,0,0,1,1.83.67Z" fill="#fff"/><path d="M255.79,394.42l1.9,2.23c-.58.49-1.13,1.32-1.72,1.35s-1.73-.76-1.72-1.17C254.26,396.17,255,395.53,255.79,394.42Z" fill="#fff"/><path d="M78.49,184.09a21.09,21.09,0,0,1-2.66-.92c-.33-.17-.49-.7-.72-1.07a3.73,3.73,0,0,1,1.26-.44,6.89,6.89,0,0,1,2.21.38,5.15,5.15,0,0,1,1.25,1.06Z" fill="#fff"/><path d="M189.83,261.59a6.63,6.63,0,0,1-1.13-1.84,1.33,1.33,0,0,1,1.37-1.67,1.31,1.31,0,0,1,1.5,1.55,7.18,7.18,0,0,1-1,1.93Z" fill="#fff"/><path d="M325.87,58.41a6.66,6.66,0,0,1-.69-1.84,1.27,1.27,0,0,1,1.54-1.47c.5.09,1.33.94,1.25,1.2a9.73,9.73,0,0,1-1.38,2.2Z" fill="#fff"/><path d="M394.92,180.22a9.6,9.6,0,0,1-1.76-2.25c-.1-.27.75-1.19,1.25-1.26a1.47,1.47,0,0,1,1.85,1.42C396.25,178.68,395.6,179.21,394.92,180.22Z" fill="#fff"/><path d="M81.78,258.92c-.14-.21-.52-.54-.55-.91-.11-1.12.91-2.41,1.89-2.32a1.59,1.59,0,0,1,1.12,1C84.36,257.65,83,258.91,81.78,258.92Z" fill="#fff"/><path d="M221.58,90.92c.66,1,1.45,1.7,1.31,2a2.63,2.63,0,0,1-1.68,1.37c-.43,0-1.44-1-1.37-1.32C220,92.35,220.73,91.85,221.58,90.92Z" fill="#fff"/><path d="M114,358.23c.89.9,1.76,1.39,2,2.1a1,1,0,0,1-1.37,1.27,3.07,3.07,0,0,1-1.65-1.47C112.83,359.83,113.49,359.12,114,358.23Z" fill="#fff"/><path d="M304,384.49c-.89.7-1.33,1.32-1.84,1.39-.95.11-1.91-.36-1.79-1.45a2,2,0,0,1,1.39-1.32C302.38,383.13,303,383.83,304,384.49Z" fill="#fff"/><path d="M96.83,182.42c-.71.58-1.31,1.29-1.5,1.19a3.11,3.11,0,0,1-1.6-1.46c-.11-.4.7-1.08,1.09-1.64Z" fill="#fff"/><path d="M368.31,147.66c.37.58,1.15,1.31,1,1.69-.23.64-1.07,1.05-1.65,1.56-.35-.43-1-.9-1-1.27a7.41,7.41,0,0,1,1-2Z" fill="#fff"/><path d="M37,138.82c.2.15.79.36.93.74.23.61-1.52,1.89-2.46,1.73-.43-.07-1.15-.64-1.12-.89C34.52,139.13,35.6,139,37,138.82Z" fill="#fff"/><path d="M196.05,200.42c-1,1.05-2,2.16-3,3.22-.09.1-.58,0-.69-.17a.78.78,0,0,1,0-.74c.82-1,1.66-2,2.54-3,.13-.15.51-.14.74-.08S195.86,200,196.05,200.42Z" fill="#fff"/><path d="M255.2,284.89a20.46,20.46,0,0,1-1.5-2.91c-.08-.22.62-1,.92-1,1.21.1,1.45,1.11,1.43,2.1C256,283.52,255.66,284,255.2,284.89Z" fill="#fff"/><path d="M367.22,70.38a.7.7,0,0,1,1.08.1,3.23,3.23,0,0,1,.69,1.38c0,.36-1,1.18-1.15,1.08a2.68,2.68,0,0,1-1.43-1.42C366.34,71.28,366.73,70.9,367.22,70.38Z" fill="#fff"/><path d="M387.1,384.34c-.81.62-1.31,1.31-1.78,1.28s-1.24-.77-1.23-1.2a1.75,1.75,0,0,1,1.19-1.27C385.73,383.09,386.28,383.77,387.1,384.34Z" fill="#fff"/><path d="M239.09,10.43a13.81,13.81,0,0,1,1.58,1.82c.06.09-.75,1-1,.92a8.35,8.35,0,0,1-1.81-1.1Z" fill="#fff"/><path d="M140.19,310.93l-2.37,1.91c-.21-.35-.66-.93-.58-1a10.33,10.33,0,0,1,1.88-1.61C139.22,310.14,139.67,310.57,140.19,310.93Z" fill="#fff"/><path d="M171.05,176.88l-1.23-.71c.83-.53,1.65-1.08,2.51-1.55.08,0,.46.49.71.76Z" fill="#fff"/><path d="M108.31,305.27a9.36,9.36,0,0,1,1.15,2.26c.07.34-.5.8-.79,1.21a11.83,11.83,0,0,1-1.18-1.94C107.39,306.55,107.85,306.09,108.31,305.27Z" fill="#fff"/><path d="M315.45,6.13a.69.69,0,0,1,.89.12c.44.5.86,1,1.23,1.46a3.25,3.25,0,0,1-.76.72c-.5-.38-1-.79-1.44-1.21a.69.69,0,0,1,.08-1.09Z" fill="#fff"/><path d="M108,345.6c-.77.64-1.3,1.35-1.58,1.26a2.69,2.69,0,0,1-1.32-1.26c-.08-.15.63-1,.94-1C106.53,344.62,107.05,345.09,108,345.6Z" fill="#fff"/><path d="M249,41.52c-.87.49-1.37,1-1.82,1s-.87-.63-1.3-1c.45-.4.87-1,1.38-1.12S248.15,40.94,249,41.52Z" fill="#fff"/><path d="M331.34,28.73a.69.69,0,0,1,0,1c-.38.31-.67.56-.72.52a3.7,3.7,0,0,1-1.14-1.48c-.08-.24.57-.71.89-1.08Z" fill="#fff"/><path d="M147.7,125.38a12.73,12.73,0,0,1-2.08,1.4c-.14.06-.92-.84-.84-1a3.22,3.22,0,0,1,1.3-1.31C146.33,124.37,146.88,124.91,147.7,125.38Z" fill="#fff"/><path d="M293.28,280.16c-1,.72-1.72,1.27-2.48,1.75-.07,0-.43-.41-.66-.63.67-.59,1.31-1.21,2-1.75C292.25,279.46,292.64,279.79,293.28,280.16Z" fill="#fff"/><path d="M221.76,269.87c-.81.47-1.35,1-1.73.94a1.65,1.65,0,0,1-1-1.22c0-.34.76-1,1.16-1S221,269.24,221.76,269.87Z" fill="#fff"/><path d="M188.82,204.12a7.52,7.52,0,0,1,1,2.1c0,.36-.53.77-.82,1.16a5.64,5.64,0,0,1-1.11-1.52C187.83,205.54,188.33,205,188.82,204.12Z" fill="#fff"/></g></svg>